<?xml version="1.0" encoding="UTF-8" standalone="no"?>
<!-- Created with Inkscape (http://www.inkscape.org/) -->

<svg
   width="2056.1538mm"
   height="2056.1538mm"
   viewBox="0 0 2056.1538 2056.1538"
   version="1.1"
   id="svg1"
   xmlns="http://www.w3.org/2000/svg"
   xmlns:svg="http://www.w3.org/2000/svg">
  <defs
     id="defs1" />
  <g
     id="layer1"
     transform="translate(2291.5167,1433.2481)">
    <ellipse
       style="fill:#333333;stroke-width:0.273869"
       id="path1"
       cx="-1263.4398"
       cy="-405.17105"
       rx="1028.077"
       ry="1028.0769" />
    <path
       id="path3"
       style="fill:#7a2e2e;fill-opacity:1;stroke-width:0.266944"
       d="m -1283.9744,-1152.4548 c -132.5766,326.06412 -597.6722,464.03896 -641.1697,476.32542 76.3512,-6.63623 475.8807,-55.1794 641.4374,-357.25622 z m 0.4814,214.03755 c -152.4197,244.60123 -581.0719,309.57227 -640.5764,317.52171 33.6469,170.38754 175.4657,722.4936 643.5852,1019.55947 z" />
    <path
       style="fill:#690d0d;fill-opacity:1;stroke:#000000;stroke-width:1.75372;stroke-opacity:1"
       d="m -1238.0599,354.55435 2.9611,-49.03407 27.9595,-17.13895 c 124.7445,-76.46761 232.04635,-231.520443 329.16275,-352.693153 69.9333,-87.256137 142.57777,-191.275287 193.12535,-276.534917 10.12701,-17.08142 18.72577,-30.72178 19.10836,-30.31188 0.3826,0.40989 -5.04543,16.11397 -12.06226,34.89796 -102.81075,275.223277 -258.96175,501.96324 -453.0585,657.86644 -32.7263,26.28657 -102.1371,76.06046 -106.068,76.06046 -0.6206,0 -1.1284,-19.40036 -1.1283,-43.11189 z"
       id="path5" />
    <path
       style="fill:#ff5555;fill-opacity:1;stroke:#000000;stroke-width:2.31294;stroke-opacity:1"
       d="m -1236.8757,2.7572972 c 0,-130.1895972 0.67,-441.1689772 1.488,-691.0652672 l 1.4874,-454.35693 12.5901,25.8169 c 15.9735,32.7548 21.0172,41.2505 44.1813,74.4207 33.0242,47.28943 83.9412,100.53981 138.3312,144.67046 103.89205,84.29535 258.79755,165.59895 405.24956,212.69907 16.59153,5.33598 31.36614,10.11505 32.83246,10.62011 2.69783,0.92932 -1.98297,14.83971 -22.14593,65.8133 -94.08066,237.84335 -257.55114,486.81903 -459.06799,699.189187 -51.508,54.282093 -116.6674,117.119613 -151.0363,145.654233 -3.7183,3.08711 -3.9104,-8.38435 -3.9098,-233.4617628 z"
       id="path6" />
    <path
       style="fill:#000000;fill-opacity:0;stroke:#000000;stroke-width:2.63144;stroke-opacity:1"
       d="m -1305.9653,380.32654 c -131.3081,-88.44539 -250.9631,-209.03806 -346.6033,-349.319617 -88.4653,-129.757451 -157.8611,-272.259043 -212.7234,-436.819003 -29.0795,-87.22426 -60.7352,-212.42033 -54.2206,-214.43905 1.6793,-0.52035 8.974,-1.71127 16.2105,-2.64644 26.367,-3.40735 93.6483,-17.41569 138.3765,-28.81069 145.983,-37.19078 271.4452,-92.31688 361.1382,-158.67853 32.4509,-24.00967 88.2276,-79.19733 106.2534,-105.1315 l 13.1664,-18.94269 1.3909,664.96117 c 0.765,365.728626 1.2343,665.14506 1.0427,665.3698 -0.1916,0.22479 -11.0056,-6.76979 -24.0313,-15.54345 z"
       id="path7" />
    <path
       style="fill:#690d0d;fill-opacity:1;stroke:#000000;stroke-width:2.7146;stroke-opacity:1"
       d="m -1877.4475,-688.00645 c 5.2257,-2.1042 30.8786,-11.96427 57.0066,-21.91128 132.912,-50.60008 262.1475,-123.66945 350.9637,-198.43398 49.6856,-41.82472 113.4786,-111.40819 139.6613,-152.33819 5.0841,-7.9477 17.096,-28.728 26.6932,-46.1784 l 17.4494,-31.728 v 53.0686 53.0686 l -21.3765,31.6355 c -64.5959,95.59667 -143.3315,163.25182 -255.2198,219.3028 -85.7188,42.94121 -185.5136,75.34912 -283.6414,92.11127 -37.4296,6.39371 -44.7471,6.71917 -31.5449,1.40308 z"
       id="path8" />
  </g>
</svg>
