<?xml version="1.0" encoding="UTF-8" standalone="no"?>
<!-- Created with Inkscape (http://www.inkscape.org/) -->

<svg
   width="1326.2848mm"
   height="1551.1188mm"
   viewBox="0 0 1326.2848 1551.1188"
   version="1.1"
   id="svg1"
   xmlns="http://www.w3.org/2000/svg"
   xmlns:svg="http://www.w3.org/2000/svg">
  <defs
     id="defs1">
    <rect
       x="-30401.336"
       y="-5649.0425"
       width="19663.844"
       height="7115.2065"
       id="rect5" />
  </defs>
  <g
     id="layer1"
     transform="translate(10170.144,1176.7405)"
     style="display:inline">
    <ellipse
       style="display:none;fill:#4d4d4d;stroke-width:0.273869"
       id="path1"
       cx="-9508.4395"
       cy="-429.45676"
       rx="1028.077"
       ry="1028.0769" />
    <path
       id="path3"
       style="fill:#7a2e2e;fill-opacity:1;stroke-width:0.266944"
       d="m -9528.9744,-1176.7405 c -132.5766,326.06411 -597.6726,464.03895 -641.1696,476.32541 76.351,-6.63623 475.8806,-55.1794 641.4373,-357.25621 z m 0.4814,214.03754 c -152.4197,244.60123 -581.072,309.57227 -640.576,317.52171 33.646,170.38754 175.4653,722.493596 643.5848,1019.55947 z" />
    <path
       style="fill:#690d0d;fill-opacity:1;stroke:#000000;stroke-width:1.75372;stroke-opacity:1"
       d="m -9483.0599,330.26864 2.9611,-49.03407 27.9595,-17.13895 c 124.7445,-76.46761 232.0463,-231.520447 329.1627,-352.693157 69.9333,-87.256133 142.5778,-191.275283 193.1254,-276.534913 10.127,-17.08142 18.7258,-30.72178 19.1084,-30.31188 0.3826,0.40989 -5.0455,16.11397 -12.0623,34.89796 -102.8108,275.223273 -258.9618,501.96324 -453.0585,657.86644 -32.7263,26.28657 -102.1371,76.06046 -106.068,76.06046 -0.6206,0 -1.1284,-19.40036 -1.1283,-43.11189 z"
       id="path5" />
    <path
       style="fill:#ff5555;fill-opacity:1;stroke:#000000;stroke-width:2.31294;stroke-opacity:1"
       d="m -9481.8757,-21.528417 c 0,-130.189593 0.67,-441.168973 1.488,-691.065263 l 1.4874,-454.35692 12.5901,25.8169 c 15.9735,32.7548 21.0172,41.2505 44.1813,74.4207 33.0242,47.2894 83.9412,100.5398 138.3312,144.67045 103.892,84.29535 258.7975,165.59895 405.2496,212.69907 16.5915,5.33598 31.3661,10.11505 32.8324,10.62011 2.6978,0.92932 -1.983,14.83971 -22.1459,65.8133 -94.0807,237.84335 -257.5512,486.81903 -459.068,699.189183 -51.508,54.282097 -116.6674,117.119617 -151.0363,145.654237 -3.7183,3.08711 -3.9104,-8.38435 -3.9098,-233.461767 z"
       id="path6" />
    <path
       style="fill:#000000;fill-opacity:0;stroke:#000000;stroke-width:2.63144;stroke-opacity:1"
       d="M -9550.9653,356.04083 C -9682.2734,267.59544 -9801.9284,147.00277 -9897.5686,6.7212087 -9986.0339,-123.03624 -10055.43,-265.53783 -10110.292,-430.09779 c -29.08,-87.22426 -60.735,-212.42033 -54.221,-214.43905 1.68,-0.52035 8.974,-1.71127 16.211,-2.64644 26.367,-3.40735 93.648,-17.41569 138.376,-28.81069 145.9834,-37.19078 271.4456,-92.31688 361.1386,-158.67853 32.4509,-24.00967 88.2276,-79.19733 106.2534,-105.1315 l 13.1664,-18.94269 1.3909,664.96117 c 0.765,365.728622 1.2343,665.14506 1.0427,665.3698 -0.1916,0.22479 -11.0056,-6.76979 -24.0313,-15.54345 z"
       id="path7" />
    <path
       style="fill:#690d0d;fill-opacity:1;stroke:#000000;stroke-width:2.7146;stroke-opacity:1"
       d="m -10122.448,-712.29216 c 5.226,-2.1042 30.879,-11.96427 57.007,-21.91128 132.9121,-50.60008 262.1476,-123.66945 350.9638,-198.43398 49.6856,-41.82472 113.4786,-111.40818 139.6613,-152.33818 5.0841,-7.9477 17.096,-28.728 26.6932,-46.1784 l 17.4494,-31.728 v 53.0686 53.0686 l -21.3765,31.6355 c -64.5959,95.59666 -143.3315,163.25181 -255.2198,219.30279 -85.7188,42.94121 -185.5136,75.34912 -283.6414,92.11127 -37.43,6.39371 -44.747,6.71917 -31.545,1.40308 z"
       id="path8" />
    <path
       id="text4"
       style="font-style:normal;font-variant:normal;font-weight:normal;font-stretch:normal;font-size:192px;font-family:Inter;-inkscape-font-specification:'Inter, @opsz=32,wght=600';font-variant-ligatures:normal;font-variant-caps:normal;font-variant-numeric:normal;font-variant-east-asian:normal;font-variation-settings:'opsz' 32, 'wght' 600;text-align:start;writing-mode:lr-tb;direction:ltr;text-anchor:start;white-space:pre;shape-inside:url(#rect5);display:none;fill:#000000;stroke:#4d4d4d;stroke-width:7.81599"
       d="m -5235.1321,-1016.191 c -78.5965,0 -147.6079,13.942 -207.0345,41.82623 -58.9435,27.38621 -104.9511,65.97628 -138.0229,115.76942 -32.5888,49.29519 -48.8831,107.30378 -48.8831,174.02658 0,78.17521 25.4038,142.15978 76.204,191.9529 50.8001,49.79313 129.6342,87.38654 236.5023,112.78105 l 115.0191,26.88828 c 47.9246,11.45242 86.2644,24.39863 115.0191,38.83864 29.2379,14.44001 50.5625,31.36967 63.9813,50.789 13.419,19.41931 20.1284,42.32415 20.1284,68.71451 0,32.36554 -9.3396,60.74762 -28.034,85.14625 -18.2114,23.9007 -44.0907,42.573522 -77.6379,56.017665 -33.0719,12.946214 -71.887,19.419321 -116.4607,19.419321 -49.3586,0 -92.0076,-8.464832 -127.955,-25.394495 -35.4642,-16.929664 -62.7774,-41.328301 -81.9472,-73.195891 -19.1699,-32.36554 -29.0002,-70.95561 -29.4756,-115.76943 h -186.1929 c 0,79.669 17.0151,147.88559 51.0454,204.649758 34.0226,56.764166 82.6681,100.333551 145.9286,130.70736 63.2606,30.373802 138.9815,45.560312 227.1628,45.560312 84.3473,0 157.4305,-13.69351 219.2571,-41.079728 61.819,-27.884152 109.5059,-67.220723 143.0531,-118.009714 33.5472,-50.78899 50.3171,-110.789308 50.3171,-180.001758 0,-40.83036 -6.4641,-77.67728 -19.4076,-110.54075 -12.4604,-32.86346 -31.868,-61.99284 -58.2304,-87.38734 -26.3547,-25.39449 -59.9019,-47.30346 -100.634,-65.72692 -40.2567,-18.92139 -88.189,-34.8544 -143.7816,-47.80061 l -108.5473,-26.14179 c -46.4831,-10.95449 -84.1098,-23.40277 -112.8645,-37.34484 -28.2717,-13.94208 -49.1208,-29.87588 -62.5397,-47.80141 -12.9359,-18.42346 -19.4077,-40.08307 -19.4077,-64.97964 0,-30.37381 8.6265,-57.01353 25.8794,-79.91836 17.2529,-23.40277 41.2152,-41.57686 71.887,-54.52308 30.6717,-13.44414 65.6529,-20.16662 104.9511,-20.16662 62.7851,0 113.3475,16.6811 151.6872,50.0425 38.3397,33.36139 59.4265,79.41964 63.2605,138.17553 h 180.4344 c -1.9171,-73.69383 -19.1699,-136.9311 -51.7586,-189.71182 -32.1134,-53.27864 -77.4002,-94.10901 -135.8683,-122.49109 -57.985,-28.88002 -126.9965,-43.32002 -207.0344,-43.32002 z m -2748.2594,3.621 -101.6998,1.8092 -101.6923,1.8101 -1.9629,569.2239 -1.9631,569.22309 h 103.6629 103.6552 v -571.03317 z m 4236.3232,6.8356 c -30.6719,0 -56.3135,10.20794 -76.9173,30.62313 -20.6113,20.41517 -30.9171,45.80888 -30.9171,76.18268 0,30.37381 10.3058,56.01767 30.9171,76.93078 20.6038,20.41519 46.4831,30.62318 77.638,30.62318 30.6717,0 56.3057,-10.20799 76.9171,-30.62318 20.6037,-20.41517 30.9095,-45.80968 30.9095,-76.18349 0,-30.87173 -10.3058,-56.5148 -30.9095,-76.92997 -20.6114,-20.41519 -46.4907,-30.62313 -77.6378,-30.62313 z m -933.0966,7.46892 V 114.61094 h 181.1552 v -445.89787 c 0,-45.31174 7.1925,-82.15866 21.5698,-110.54074 14.8529,-28.38208 34.7436,-49.2944 59.6643,-62.73855 24.9208,-13.44414 53.1926,-20.16661 84.8228,-20.16661 48.8831,0 86.5097,14.93794 112.8644,44.81382 26.8378,29.87588 40.2567,73.69383 40.2567,131.45386 v 463.07609 h 181.8759 v -492.95197 c 0,-67.71866 -11.5019,-124.73219 -34.5057,-171.0398 -23.0038,-46.3076 -54.8718,-81.1628 -95.6116,-104.56556 -40.7321,-23.90071 -87.6982,-35.85106 -140.8984,-35.85106 -65.6529,0 -120.7701,18.42346 -165.3361,55.27037 -24.7905,20.71315 -46.1228,47.3704 -64.7021,78.78309 v -442.52149 z m 1999.8989,0 V 114.61094 h 181.1551 V -998.26548 Z m 864.0774,0 v 436.1878 h -1.434 c -16.2943,-28.88001 -35.9473,-52.78071 -58.9511,-71.7021 -23.0038,-18.92139 -48.8832,-32.86347 -77.6379,-41.82623 -28.2718,-9.46069 -58.9435,-14.19144 -92.0154,-14.19144 -64.6943,0 -121.7285,17.17903 -171.087,51.53629 -49.3663,34.35725 -87.7059,82.40802 -115.0192,144.15151 -27.3208,61.74347 -40.9775,132.94764 -40.9775,213.61251 0,81.66073 13.419,153.36283 40.2568,215.106315 27.3209,61.743479 65.6605,109.793449 115.0191,144.150707 49.8416,34.357258 107.5888,51.536288 173.2495,51.536288 33.0641,0 63.9736,-4.98011 92.7283,-14.93873 29.2379,-9.95864 55.3549,-24.896571 78.3588,-44.813822 23.4868,-20.415183 43.1321,-45.808881 58.9511,-76.1826891 h 1.4339 V 114.61094 h 178.2797 V -998.26548 Z m -5148.5398,306.22774 c -74.287,0 -139.7023,17.42759 -196.2532,52.28279 -56.0681,34.85518 -99.921,83.40388 -131.5513,145.6453 -31.1549,61.74347 -46.7284,133.44557 -46.7284,215.10631 0,81.66072 15.5735,153.36283 46.7284,215.106309 31.6303,61.7434788 75.4832,110.042813 131.5513,144.898003 56.5509,34.357258 121.9662,51.535488 196.2532,51.535488 74.7625,0 140.1776,-17.17823 196.2457,-51.535488 56.0756,-34.85519 99.6832,-83.1545242 130.838,-144.898003 31.6303,-61.743479 47.4416,-133.445589 47.4416,-215.106309 0,-81.66074 -15.8113,-153.36284 -47.4416,-215.10631 -31.1548,-62.24142 -74.7624,-110.79012 -130.838,-145.6453 -56.0681,-34.8552 -121.4832,-52.28279 -196.2457,-52.28279 z m 3797.7858,0 c -70.9284,0 -133.7136,17.67696 -188.3477,53.03008 -54.634,35.35312 -97.5208,84.15039 -128.6757,146.39179 -30.6717,62.24141 -46.0076,133.44559 -46.0076,213.61253 0,79.669 14.8604,150.62381 44.5737,212.86522 30.1887,61.7434787 73.0832,110.292177 128.6757,145.645298 55.5926,35.353122 121.2455,53.029282 196.9665,53.029282 59.4265,0 113.5851,-10.95449 162.4683,-32.863463 48.8832,-22.406909 89.3775,-53.278647 121.4908,-92.6152188 32.5888,-39.3365712 53.6757,-84.6483182 63.2606,-135.9352482 h -169.6532 c -6.7094,22.40692 -17.9736,42.0756 -33.785,59.005264 -15.8189,16.929663 -35.4642,30.124444 -58.9511,39.585139 -23.4792,9.460693 -50.3247,14.191439 -80.5134,14.191439 -41.6982,0 -77.4002,-9.461491 -107.1135,-28.38288 -29.2302,-18.921389 -51.5208,-45.560313 -66.8567,-79.917572 -13.718,-30.74108 -20.3431,-66.54911 -21.7924,-106.05937 h 548.0048 v -51.53628 c 0,-60.24969 -8.6187,-115.27069 -25.8716,-165.06382 -17.2529,-50.29106 -41.936,-93.61108 -74.0493,-129.96007 -32.1056,-36.84691 -70.4454,-65.22899 -115.0192,-85.14625 -44.566,-19.91724 -94.17,-29.87587 -148.804,-29.87587 z m -2886.98,2.24029 c -65.6606,0 -120.77,18.42346 -165.3438,55.27037 -26.1094,21.82373 -48.3464,50.32532 -67.57,84.0269 v -123.61203 h -178.2796 v 788.72315 h 181.1551 v -445.89787 c 0,-45.31174 7.1849,-82.15866 21.5623,-110.54074 14.8604,-28.38208 34.7511,-49.2944 59.6719,-62.73855 24.9208,-13.44414 53.1926,-20.16661 84.8228,-20.16661 48.8831,0 86.502,14.93794 112.8644,44.81382 26.8378,29.87588 40.2567,73.69383 40.2567,131.45386 v 463.07609 h 181.8759 v -492.95197 c 0,-67.71866 -11.5019,-124.73219 -34.5058,-171.0398 -23.0037,-46.3076 -54.8794,-81.1628 -95.6115,-104.56556 -40.7398,-23.90071 -87.7059,-35.85106 -140.8984,-35.85106 z m -1404.0921,8.21627 c -48.8831,0 -88.4267,11.70178 -118.6155,35.10455 -29.7132,23.40276 -51.5208,57.75923 -65.4151,103.07098 h -2.1624 v -130.70656 h -174.6833 v 788.72315 h 181.1551 v -446.64437 c 0,-41.32829 6.7094,-75.68555 20.1283,-103.07177 13.902,-27.38622 32.351,-47.8014 55.3549,-61.24555 23.4792,-13.94207 49.3585,-20.91311 77.6379,-20.91311 18.2114,0 35.4642,0.7465 51.7586,2.24029 16.2943,1.4938 27.5585,2.73902 33.785,3.73489 V -678.5936 c -7.1849,-0.99586 -15.8114,-1.74236 -25.8794,-2.24029 -9.5849,-0.49794 -20.6037,-0.74729 -33.0641,-0.74729 z m 3621.0857,7.46897 v 788.72315 h 181.1551 v -788.72315 z m 672.8618,131.45385 c 38.8152,0 72.1248,8.96276 99.921,26.88829 28.2794,17.4276 50.087,42.32416 65.4229,74.6897 11.3716,23.28406 17.1991,50.93797 20.389,80.66486 h -370.8522 c 3.0978,-29.72689 8.749,-57.3808 19.7756,-80.66486 15.3359,-32.36554 37.1434,-57.2621 65.4229,-74.6897 28.2716,-17.92553 61.5812,-26.88829 99.9208,-26.88829 z m -3800.6612,8.21626 c 38.8151,0 72.3624,10.45577 100.6417,31.36888 28.7548,20.41519 50.8001,49.79313 66.136,88.13384 15.8114,37.84278 23.717,83.15532 23.717,135.93604 0,52.28278 -7.9056,97.59373 -23.717,135.93443 -15.3359,37.84279 -37.3812,66.972164 -66.136,87.387347 -28.2793,20.415182 -61.8266,30.622375 -100.6417,30.622375 -38.8228,0 -72.6077,-10.207193 -101.3625,-30.622375 -28.7547,-20.415183 -51.0378,-49.544557 -66.8567,-87.387347 -15.336,-37.84277 -23.0039,-83.15372 -23.0039,-135.93443 0,-52.78072 7.6679,-98.09326 23.0039,-135.93604 15.8189,-38.34071 38.102,-67.71865 66.8567,-88.13384 28.7548,-20.91311 62.5397,-31.36888 101.3625,-31.36888 z m 4962.3544,0.7465 c 39.7737,0 74.2794,10.45657 103.5173,31.36968 29.2302,20.91311 51.9963,50.29106 68.2906,88.13383 16.2944,37.84278 24.4454,82.40803 24.4454,133.69495 0,51.28692 -8.151,96.10074 -24.4454,134.44145 -16.2943,37.84277 -39.0604,67.220721 -68.2906,88.133834 -29.2379,20.415182 -63.7436,30.622375 -103.5173,30.622375 -36.9058,0 -69.4945,-9.710058 -97.7662,-29.129377 -28.2794,-19.419321 -50.3248,-48.049972 -66.136,-85.892752 -15.819,-37.84277 -23.7246,-83.90102 -23.7246,-138.17553 0,-54.2745 7.9056,-100.08418 23.7246,-137.42904 15.8112,-37.84277 37.8566,-66.47422 66.136,-85.89354 28.2717,-19.91724 60.8604,-29.87588 97.7662,-29.87588 z" />
  </g>
</svg>
